# xmcd
#
# Track frame offsets: 
#        150
#        21074
#        37913
#        61920
#        77795
#        96705
#        119222
#        128100
#        150541
#        161230
#        171721
#        187754
#        208556
#
# Disc length: 3318 seconds
#
# Revision: 0
# Processed by: cddbd v1.5.2PL0 Copyright (c) Steve Scherf et al.
# Submitted via: ExactAudioCopy v0.95b4
#
DISCID=b40cf40d
DTITLE=Kool and The Gang - Kool  and The Gang Live
DYEAR=2006
DGENRE=R&B
TTITLE0=Celebration
TTITLE1=Ladies Night
TTITLE2=Cherish
TTITLE3=Joanna
TTITLE4=Tonight
TTITLE5=Hollywood Swinging
TTITLE6=Fresh
TTITLE7=Victory
TTITLE8=Take My Heart
TTITLE9=Get Down on It
TTITLE10=Emergency
TTITLE11=Ooh La La
TTITLE12=Too Hot
EXTD=
EXTT0=
EXTT1=
EXTT2=
EXTT3=
EXTT4=
EXTT5=
EXTT6=
EXTT7=
EXTT8=
EXTT9=
EXTT10=
EXTT11=
EXTT12=
PLAYORDER=
